<svg xmlns="http://www.w3.org/2000/svg" viewBox="0 0 120 120" role="img" aria-label="Myrmec variant 3 dotted dual orbit ant">
  <defs>
    <linearGradient id="v3-grad" x1="0" y1="0" x2="1" y2="1">
      <stop offset="0%" stop-color="#f59e0b"/>
      <stop offset="100%" stop-color="#cc5b3e"/>
    </linearGradient>
  </defs>
  <rect x="6" y="6" width="108" height="108" rx="26" fill="#17332f"/>
  <path d="M28 88V36L46 60L60 44L74 60L92 36V88" fill="none" stroke="url(#v3-grad)" stroke-width="9" stroke-linecap="round" stroke-linejoin="round"/>
  <ellipse cx="60" cy="44" rx="10" ry="8" fill="none" stroke="#f9d28f" stroke-width="3.2"/>
  <ellipse cx="60" cy="74" rx="12" ry="8" fill="none" stroke="#f9d28f" stroke-width="3"/>
  <path d="M60 52V68" fill="none" stroke="#f9d28f" stroke-width="3.2" stroke-linecap="round"/>

  <path d="M46 35C40 28 34 23 27 21" fill="none" stroke="#f9d28f" stroke-width="3" stroke-linecap="round" stroke-dasharray="1 7"/>
  <path d="M74 35C80 28 86 23 93 21" fill="none" stroke="#f9d28f" stroke-width="3" stroke-linecap="round" stroke-dasharray="1 7"/>
  <path d="M27 21C40 12 80 12 93 21" fill="none" stroke="#fff1d4" stroke-opacity="0.55" stroke-width="2" stroke-linecap="round" stroke-dasharray="1 8"/>
  <circle cx="27" cy="21" r="2.5" fill="#f59e0b"/>
  <circle cx="93" cy="21" r="2.5" fill="#f59e0b"/>
  <circle cx="60" cy="14" r="2.6" fill="#cc5b3e"/>

  <path d="M34 62L18 56" fill="none" stroke="#f9d28f" stroke-width="3" stroke-linecap="round"/>
  <path d="M34 74L18 80" fill="none" stroke="#f9d28f" stroke-width="3" stroke-linecap="round"/>
  <path d="M86 62L102 56" fill="none" stroke="#f9d28f" stroke-width="3" stroke-linecap="round"/>
  <path d="M86 74L102 80" fill="none" stroke="#f9d28f" stroke-width="3" stroke-linecap="round"/>
  <path d="M52 74L36 83" fill="none" stroke="#f9d28f" stroke-width="3" stroke-linecap="round"/>
  <path d="M68 74L84 83" fill="none" stroke="#f9d28f" stroke-width="3" stroke-linecap="round"/>

  <path d="M27 94C40 104 80 104 93 94" fill="none" stroke="#fff1d4" stroke-opacity="0.55" stroke-width="2" stroke-linecap="round" stroke-dasharray="1 8"/>
  <circle cx="27" cy="94" r="2.5" fill="#f59e0b"/>
  <circle cx="93" cy="94" r="2.5" fill="#f59e0b"/>
  <circle cx="60" cy="102" r="2.6" fill="#cc5b3e"/>
</svg>
