<svg xmlns="http://www.w3.org/2000/svg" viewBox="0 0 120 120" role="img" aria-label="Myrmec M-ant logo">
  <defs>
    <linearGradient id="m-ant-gradient" x1="0" y1="0" x2="1" y2="1">
      <stop offset="0%" stop-color="#f59e0b"/>
      <stop offset="100%" stop-color="#cc5b3e"/>
    </linearGradient>
  </defs>

  <rect x="6" y="6" width="108" height="108" rx="26" fill="#17332f"/>

  <path d="M28 88V36L46 60L60 44L74 60L92 36V88" fill="none" stroke="url(#m-ant-gradient)" stroke-width="9" stroke-linecap="round" stroke-linejoin="round"/>

  <ellipse cx="60" cy="74" rx="12" ry="8" fill="none" stroke="#f9d28f" stroke-width="3"/>

  <path d="M60 52V68" fill="none" stroke="#f9d28f" stroke-width="3.2" stroke-linecap="round"/>
  <circle cx="60" cy="61" r="2.8" fill="#fff1d4"/>

  <ellipse cx="60" cy="44" rx="10" ry="8" fill="none" stroke="#f9d28f" stroke-width="3.2"/>
  <circle cx="57" cy="42" r="1.8" fill="#fff1d4"/>
  <circle cx="63" cy="42" r="1.8" fill="#fff1d4"/>

  <path d="M52 38L44 30" fill="none" stroke="#f9d28f" stroke-width="3" stroke-linecap="round"/>
  <path d="M68 38L76 30" fill="none" stroke="#f9d28f" stroke-width="3" stroke-linecap="round"/>
  <circle cx="44" cy="30" r="2.6" fill="#f59e0b"/>
  <circle cx="76" cy="30" r="2.6" fill="#f59e0b"/>

  <path d="M34 62L18 56" fill="none" stroke="#f9d28f" stroke-width="3" stroke-linecap="round"/>
  <path d="M34 74L18 80" fill="none" stroke="#f9d28f" stroke-width="3" stroke-linecap="round"/>
  <path d="M86 62L102 56" fill="none" stroke="#f9d28f" stroke-width="3" stroke-linecap="round"/>
  <path d="M86 74L102 80" fill="none" stroke="#f9d28f" stroke-width="3" stroke-linecap="round"/>
  <path d="M52 74L36 83" fill="none" stroke="#f9d28f" stroke-width="3" stroke-linecap="round"/>
  <path d="M68 74L84 83" fill="none" stroke="#f9d28f" stroke-width="3" stroke-linecap="round"/>

  <circle cx="28" cy="88" r="3" fill="#f59e0b"/>
  <circle cx="46" cy="60" r="3" fill="#fff1d4"/>
  <circle cx="60" cy="44" r="3" fill="#cc5b3e"/>
  <circle cx="74" cy="60" r="3" fill="#fff1d4"/>
  <circle cx="92" cy="88" r="3" fill="#f59e0b"/>
  <circle cx="60" cy="74" r="3" fill="#f59e0b"/>
</svg>
